<svg id="Layer_3" height="512" viewBox="0 0 64 64" width="512" xmlns="http://www.w3.org/2000/svg" data-name="Layer 3"><circle cx="32" cy="33" fill="#f4b2b0" r="13"/><g fill="#b3404a"><path d="m57 55h-1v-5a1 1 0 0 0 -1-1h-3v-16a20 20 0 0 0 -40 0v16h-3a1 1 0 0 0 -1 1v5h-1a1 1 0 0 0 -1 1v6a1 1 0 0 0 1 1h50a1 1 0 0 0 1-1v-6a1 1 0 0 0 -1-1zm-43-22a18 18 0 0 1 36 0v16h-36zm-4 18h44v4h-44zm46 10h-48v-4h48z"/><path d="m31 1h2v7h-2z"/><path d="m47.96 11.5h7.07v2h-7.07z" transform="matrix(.707 -.707 .707 .707 6.25 40.08)"/><path d="m11.5 8.96h2v7.07h-2z" transform="matrix(.707 -.707 .707 .707 -5.18 12.5)"/><path d="m1 31h8v2h-8z"/><path d="m55 31h8v2h-8z"/><path d="m35 23h-6a1 1 0 0 0 -.74.33 1 1 0 0 0 -.26.77l1 10a1 1 0 0 0 1 .9h4a1 1 0 0 0 1-.9l1-10a1 1 0 0 0 -.26-.77 1 1 0 0 0 -.74-.33zm-1.9 10h-2.2l-.8-8h3.8z"/><path d="m34 37h-4a1 1 0 0 0 -1 1v4a1 1 0 0 0 1 1h4a1 1 0 0 0 1-1v-4a1 1 0 0 0 -1-1zm-1 4h-2v-2h2z"/><path d="m32 19a14 14 0 1 0 14 14 14 14 0 0 0 -14-14zm0 26a12 12 0 1 1 12-12 12 12 0 0 1 -12 12z"/></g></svg>